<?xml version="1.0" encoding="utf-8"?>
<!-- Generator: Adobe Illustrator 20.1.0, SVG Export Plug-In . SVG Version: 6.00 Build 0)  -->
<svg version="1.1" id="Ebene_1" xmlns="http://www.w3.org/2000/svg" xmlns:xlink="http://www.w3.org/1999/xlink" x="0px" y="0px"
	 viewBox="0 0 841.9 177.3" style="enable-background:new 0 0 841.9 177.3;" xml:space="preserve">
<style type="text/css">
	.st0{fill:#4EB4CC;}
	.st1{fill:#2B5F74;}
	.st2{font-family:'Lato-MediumItalic';}
	.st3{font-size:23.1442px;}
	.st4{fill:#2A5E73;}
	.st5{fill:none;}
	.st6{fill:#FFFFFF;}
</style>
<g>
	<path class="st0" d="M566.6,111.1l1.2,0.2l0.6-0.7h0.5l0.1-0.3l2.5-1.9l2.5-2.1l2.2-2.1l2.2-2.2l0.7-0.2l1-1.2l1.5-1.3l0.1-0.6
		l1.1-1.2l0.3-0.7l0.6-0.6l1.6-2.4l1.7-2.7l1.1-1.1l0.8-0.1l1.1,0.3v0.3h0.4V91h0.5v0.2h0.4l0.8,1l0.2,0.8l-0.1,1.2l-1.6,3l-1.7,2.4
		l-1.1,1.2l-1.7,2.7l-2.2,2.4l-2.2,2.3l-1.7,1.8l-0.7,0.2l-0.2,0.4l-2.1,1.2l-2.1,2.3l-2.1,1.7l-0.5,0.1L572,116l-0.7,0.1l-1.8,0.8
		l-0.2,0.3l-0.5,0.1l-0.5,0.7H568l-0.2,0.4h-0.5l-0.1,0.4l-1,0.3l-2.6,1.7l-2.3,1.6l-0.3,0.8l-0.3,0.2l-1.2,2.8l-1.3,2.6l-0.4,2.3
		l-0.6,1.5l-0.3,0.1v0.5h-0.2v0.4l-1.5,2.8l-1.3,2.9l-0.9,0.9v0.4l-2,2.3l-2.2,2.1l-2.6,2l-1.3,0.8l-3.1,0.7l-3,0.5l-3.3-0.2
		l-2.1-0.6l-0.7-0.5l-0.7-0.2l-1.3-1l-2-2.3l-0.3-0.2l-0.1-0.7l-1.3-3l-0.2-1.5l0.5-3l0.8-2l1-1.7l0.5-0.2l0.2-0.7l2.5-2.2l2.5-1.8
		l1.3-1l2.7-1.4l0.7-0.1l0.5-0.5l2.9-1.1l1.4-0.8l1.5-0.5l0.3-0.3h0.6l1.6-0.6l2.3-1.7v-0.4l0.5-0.3V118h0.2l0.2-0.9l0.5-0.2
		l0.7-1.9l-0.3-1.3l-0.4-0.3l-0.7-0.1l-1.4,0.8h-0.4v0.3l-0.8,0.3l-1.5,1.2l-0.7,0.2l-0.4,0.5h-0.5v0.3h-0.4v0.2l-1.6,0.3l-0.3,0.3
		l-1,0.2l-0.3,0.3l-1.8,0.2v0.2l-2.9,0.1l-3.3-0.1l-0.7-0.1l-2.7-1.6l-2.2-1.6V115l-1.6-1.7l-0.1-0.5h-0.2l-0.2-0.7l-0.6-0.4
		l-0.1-1.2l-1.1-2.9l-0.4-3v-3.1l0.2-3.1l0.5-3l0.6-3.1l0.4-3.1l-0.6-1.2l-3-1.8l-1.5-0.6l-0.5-0.5h-0.5v-0.2h-0.4v-0.3l-0.6-0.1
		l-0.2-0.3l-0.8-0.3l-1.2-0.8l-0.4-0.5l-1.3-0.8l-1.2-1.3l-1.3-1l-0.2-0.7l-1.1-1.1l-0.8-1.7l-1-1.2l-0.1-0.4h-0.2l-0.4-0.7
		l-0.7-2.9l-0.1-0.9l-0.2-0.2l-0.2-1.8l-0.2-0.1l-0.1-1.1l-0.2-0.3v-0.8h-0.2l-0.2-2.9l0.4-3.2l0.6-3l0.5-1.6l1.6-2.8l0.5-1.7
		l0.5-0.9l0.7-0.4l0.1-0.6l0.6-0.5l0.1-0.4l0.7-0.5l0.2-0.7l2.3-2l0.4-0.6l0.7-0.3l0.2-0.5l0.6-0.1l1.5-0.8l1.5,0.4l1.1,1l1.8,2.6
		l0.6,0.6l0.7,1.3l0.2,0.9l-0.6,1.4l-2.3,2.4l-2.1,2.3l-0.5,0.5V56h-0.2l-1,1.4l-0.1,0.7l-0.5,0.5l-0.3,3l-0.1,3.2l0.6,3l0.1,0.5
		h0.2v0.4h0.2l0.4,1.6h0.3v0.5h0.2v0.4h0.2v0.5h0.3V72h0.2l0.1,0.6l2.1,2.2l0.7,0.2l0.9,0.9h0.5v0.2l0.7,0.2l0.6,0.6l0.5,0.1
		l0.6,0.6l2.5,0.5l0.6-0.2l0.6-0.6l1-2.8l1-2.5l0.5-0.4l0.1-0.6l0.6-0.5l1-2.9l0.9-1.9l0.5-0.6l1.3-2.7l1.6-2.8l1.8-2.7l1.9-2.6
		l1.7-2.4l2-2.5l1.1-0.8l1.5-1.5l1.8-2.4l1.1-1.1l0.8-0.3l2-1.9l2.5-1.8l0.3-0.3l1.1-0.3l0.3-0.5h0.4l0.2-0.4h0.4l0.5-0.4l3-1.3
		l2.8-0.9l3-0.8l3-0.4l1.5,0.4l3.1-0.1l2.1,0.8l1.4,0.5l0.5,0.6l0.6,0.1l0.8,0.7l0.4,0.1l0.6,0.6l0.6,0.1l2.2,2.3l0.5,0.4v0.4h0.2
		l1.3,2.8l0.6,1.4l0.4,1.6l0.2,3.2l0.2,2.9l-0.6,3.2l-0.1,1.2l-0.5,1v0.9l-0.7,1.4l-0.2,0.8l-0.4,0.6l-0.5,1.6l-0.9,1.3l-0.2,0.8
		l-0.3,0.2l-1.5,2.7l-0.9,1.2l-0.7,0.6l-0.2,0.7l-1.5,1.3l-0.2,0.6l-1.6,2.1l-1.2,1.1l-1.2,0.8l-0.9,1l-0.7,0.2l-0.9,1l-0.5,0.2V80
		l-2.4,1.4l-2.2,1.4h-0.3l-0.6,0.6l-2.8,1.3l-1.4,0.8l-3,1l-3,1l-1.2,0.2l-2.2,0.9l-3,0.4l-3.2,0.3l-3,0.5l-3.4-0.1h-1.5l-1.1,0.6
		l-0.8,1.2l-0.9,3.2l-0.6,3.3l-0.3,3.3l0.2,3.2l1,2.7l1,1.5h0.4l0.6,0.5l1.4,0.4l3.4-0.2l2.5-0.7l0.4-0.5l0.7-0.2l0.5-0.5l0.8-0.3
		l2-1.6h0.4l2.5-2.1l2.3-2.2l2.2-2.2l2.1-2.5l0.4-0.9l0.5-0.6l1-2.9l0.6-1.5l1-1.3l1.2-0.6l2.9-1l3.1-0.6l1.5-0.5l1.6-0.2l0.7,0.4
		l0.5,0.6l0.2,0.9l-1,3l-1.2,2.6l-1.1,2.8l-0.7,1.4l-0.8,2.5l-0.9,1.3l-0.4,1.6l-0.3,0.2l-1.1,3l-1,3.1l0.2,0.8L566.6,111.1z
		 M529,84.5l-0.3,0.2l-0.8,0.1l-0.3,0.2v0.2l0.7,0.4h0.7l0.4-0.2l0.1-1.2l-0.5-0.4V84.5z M529,99.5l0.7-0.3l0.2-0.6l-0.9-0.2V99.5z
		 M529.6,95.9l0.4,0.2l0.4-0.1l0.1-0.6h-0.4l-0.4,0.3L529.6,95.9z M529.9,106l0.4,0.2l0.2,1l0.2,0.2l0.8,0.1l-0.2-2.1h-0.8l-0.5,0.4
		L529.9,106z M531,82.1v0.5h0.2V83l0.8,0.4v1.5l0.3,0.3l1.3,0.1l1-0.5l0.5,0.1l0.2-0.3l-0.5-0.4l-1.1-0.3l-2-2.3l-0.9-0.1l-0.2,0.2
		L531,82.1z M531,87.9l0.3,0.2l0.5-0.4l0.1-0.5h-0.5l-0.4,0.5V87.9z M531.5,103.9l0.5,0.6l0.7-0.1l0.3-0.5l-0.8-0.2l-0.5,0.1
		L531.5,103.9z M531.9,110.2l0.2-0.4l-0.2-0.5h-0.2l-0.2,0.3l0.2,0.5L531.9,110.2z M534.1,89.5l-0.6,0.3l-0.1,0.4l1.2-0.2l0.8,0.5
		v-0.3l-0.2-0.1l0.3-0.8l-1.4-1.3l-1.2-0.5l0.1,0.7l0.9,0.7l0.2,0.4V89.5z M534.3,82.1l-0.6,0.3l-0.2,0.3l0.3,0.5l1.3-0.4l0.7,0.2
		l0.3,0.7h0.5l0.2-0.8l-0.5-0.6l-1-0.7l-0.5-0.1L534.3,82.1L534.3,82.1z M533.9,103.9h0.5v-0.4h-0.5V103.9z M534.3,77.6v1.7
		l-0.2,1.3l0.9-0.3l0.2,0.5l0.5-0.2v-1L537,79l0.2-0.5l-0.3-0.2l-1,0.2l-0.2-0.3l-0.1-1h-0.4l-0.2,0.3l-0.5,0.1H534.3z M544.2,129.3
		l0.7,0.3l-2.2,0.5l-2.8,1.2l-2.5,1.9l-1.2,1l-1.1,1.3L535,136l-0.3,0.3l-0.1,1.7l0.2,0.6l1.1,1.1l1.4,0.6l1.4-0.2l1.3-0.8l1.3-1.2
		l0.9-1.4l0.5-0.2l0.1-0.6l0.6-0.5l0.7-1.4l0.8-1.1l0.2-0.7l0.5-0.5l0.5-1.3l-0.3-0.3v-0.3l-0.4-0.6H544.2z M535.4,85.7l0.8-0.2
		l0.4-0.5v-0.5h-0.4l-0.6,0.4l-0.2,0.6V85.7z M536.3,73.9l0.7,1.3l0.9,0.5l0.2-0.3l-0.4-1.1v-0.7L536.3,73.9L536.3,73.9z
		 M536.6,85.9l0.2,0.2l0.3-0.4l-0.3-0.3l-0.1,0.3L536.6,85.9z M538.1,83l-1.1,1l1.1,2l-0.6,0.5l0.1,0.3l0.3,0.1l0.2-0.2l1.2,0.2
		l0.4-0.5l-0.1-0.5l-0.8-0.8l0.5-0.9l-1-1.1L538.1,83z M537.9,71v0.4l0.7,0.5l0.2,0.7l0.4,0.3l0.3-0.1l-0.2-0.7l0.4-0.9l-0.2-0.2
		l-1.4-0.1L537.9,71z M539.3,78.5l0.2-0.3v-0.7l-1.4-0.8l-0.2,0.7l0.8,0.9l0.4,0.1L539.3,78.5z M540.3,80.8l-0.4-0.5l-0.7,0.2V81
		h1.1V80.8z M541.2,70.6l-0.6-0.2l-0.1,0.4l0.4,0.2l0.3-0.2V70.6z M541.2,68.7l0.7-0.9h-0.8l-0.3,0.3l0.2,0.5L541.2,68.7z
		 M540.8,87.5l0.4-0.2l1.4,0.2l0.2-0.4l-0.5-0.3l-0.2-0.8l-0.4-0.1l-0.9,1.4V87.5z M541,62.7h0.4v-0.4H541V62.7z M541.4,72.7
		l0.9-0.2v-0.4l-0.6-0.3l-0.3,0.7V72.7z M544.9,80.1h1.1l0.2-0.2l3.1-0.2l1.6-0.3l2.4-0.9v-0.2h0.7l2.4-0.8l2.3-1.2l0.7-0.1l1.1-0.5
		l1.3-0.9l0.4-0.1l1.7-1.3l0.7-0.2l0.5-0.6l1.3-0.8l2.3-2.3l1.9-2.4l2.1-2.4l0.5-0.6l0.2-0.6l0.6-0.6l1.4-2.9l0.9-2.8l0.6-3.1
		l0.1-1.9l-0.3-1.7l-0.5-1v-0.5l-1-0.8v-0.3l-0.3-0.3l-0.6-0.2l-0.2-0.3l-1.5-0.4l-1.7-0.1l-3,0.4l-1.5,0.4l-1.4,0.7l-0.9,0.7h-0.5
		v0.2h-0.4v0.3l-0.6,0.1l-2.4,2l-2.4,2.2l-2.5,2.5v0.4l-1.3,1L553,59l-0.6,0.5l-1.9,2.7l-1.7,2.8l-1.6,2.8l-0.3,0.2l-0.1,0.6
		l-0.6,0.6v0.4l-1,1.3l-1,2.2l-0.3,0.8l-0.4,0.5v0.4l-1.5,2.9l-0.3,1.5l0.2,0.8l0.7,0.6L544.9,80.1z M545.1,60.2v0.5l0.2,0.2
		l0.7-0.2v-0.5l-0.7-0.2v0.2H545.1z M545.1,85.2v0.4l0.2,0.2l0.9,0.1l-0.3-0.7l-0.3-0.2L545.1,85.2L545.1,85.2z M547.2,57.2l0.4,0.7
		l1.3-0.6l0.8-0.8l0.8,0.9l0.4-0.2l-0.1-0.4l-1.3-0.8l-0.2,0.3h-0.5l-0.1,0.5l-0.4,0.5h-0.8L547.2,57.2z M548.4,138.4l0.2-0.3
		l-0.2-1h-0.5l-0.2,0.3l0.2,1H548.4z M549,59.7h0.7l-0.1-0.4l-0.6-0.1V59.7z M550.2,128l-0.2-1.2l-0.7-0.2l0.1,1.2l0.5,0.2H550.2z
		 M551.1,136l-0.4-0.7l-0.3,0.3l0.5,0.4H551.1z M553.5,128.7l-0.1-0.9l-0.8-1.6l-1.2-0.2l-0.6,0.4l-0.3,0.7l0.7,0.3l0.5,0.5l0.2,0.8
		l-0.2,0.6h0.9l1.3,0.5l-0.4-0.8V128.7z M551.8,133.3h0.4l0.3-0.8l-0.3-0.5l-0.3,0.1l-0.3,0.6l0.1,0.4L551.8,133.3z M551.8,55.6h0.6
		l-0.1-0.3l-0.5-0.2V55.6z M553.5,124.5l-0.2,0.3l0.1,0.9l0.5,0.3l-0.1-1.6l-0.3-0.4l0.6-0.9l0.7-0.2l0.3,0.2h1.3l-0.1-0.8l-0.6-0.6
		l-0.4,0.6l-0.7,0.1l-0.1-0.4l-0.6-0.5l-1.1-0.2l-0.2,0.3l0.5,0.7l-0.1,0.3h-0.4l-0.5,0.5l0.1,0.8l1.3,0.4V124.5z M552.8,48.2h0.7
		l-0.1-0.3l-0.6-0.1V48.2z M554.1,51.4h0.5v-0.5h-0.5V51.4z M554.4,127.1l0.2,2l1.2,0.9l0.6,0.2l0.1-0.5l-1-1.3l0.6-2.2h-0.4
		l-0.6,0.9H554.4z M555.5,116.6l0.2-0.9l-0.9-0.2l0.1,0.9l0.4,0.2H555.5z M556.2,108.1l-0.8-0.2l-0.1,0.2l0.6,0.5h0.5l0.1-0.3
		l0.4-0.1l0.2-0.5l-0.7,0.3L556.2,108.1z M555.3,120.2l0.1,0.7l2.1,0.6l-0.1-0.9l-0.2-0.3l-0.7-0.3l-1,0.1L555.3,120.2z M555.7,115
		h0.4l0.3-0.3v-0.6l-0.6,0.3l-0.1,0.4V115z M558.4,114.1l-1.4,0.6l-0.2,0.3v0.7l0.6,0.4l1-0.1l1.3,0.4l0.2-0.4l-0.8-1.8l0.2-1.4
		l-0.7-0.2l-0.2,0.2V114.1z M557.1,123.1l0.4,0.1l0.3,0.7l0.2,0.1l0.3-1.1l-0.2-0.8l-0.6-0.1l-0.4,0.8V123.1z M557.8,111.8l0.4-0.1
		l0.3-0.9l-0.4,0.1L557.8,111.8L557.8,111.8z M557.9,49.8h0.5v-0.5h-0.5V49.8z M558.1,47.2h0.5v-0.5h-0.5V47.2z M558.1,118.2
		l0.2,0.1l-0.1,1.5l0.6,0.2l0.1-0.9l0.4-1l-0.1-0.3l-0.4-0.3l-0.6,0.5L558.1,118.2z M558.4,104.2l-0.1,0.9l0.5,0.2v-1.8l-0.6,0.2
		l0.1,0.3L558.4,104.2z M558.6,109l0.3,0.7l0.6,0.2l0.2-0.2l-0.3-0.7l-0.6-0.2v0.2H558.6z M558.8,103.2h0.5l0.5-0.4l0.1-0.7
		l-0.4,0.1l-0.6,0.6v0.2L558.8,103.2z M558.8,105.7l0.7,0.2l0.7-0.6l-0.8-0.2l-0.5,0.4L558.8,105.7z M558.8,107.4h0.6l0.1-0.4H559
		L558.8,107.4z M559.7,112.2l1.4,0.9v-0.9l0.6-0.4v-0.7h-0.9l-0.7,0.3l-0.4,0.6V112.2z M562.7,104.6l-0.7,0.3h-0.8l-0.4,1.1h-0.4
		v0.6l0.3,0.1l0.3-0.6l0.3,0.1l0.3,0.7h1.3l-0.1-0.4l-0.5-0.6l0.1-0.2l0.7,0.3h0.5l-0.3-1.6l0.3-1.2l-0.6-0.4h-0.3l-0.3,0.6l0.3,1
		V104.6z M562.9,97.9v-0.7l-0.7-1.3h-0.7l0.1,0.9l0.7,0.9l0.4,0.1L562.9,97.9z M561.7,101.9h0.7v-0.4l-0.7-0.3V101.9z M561.7,117.3
		h0.4l0.6-0.7l-0.5,0.1l-0.4,0.4L561.7,117.3z M562.2,112.2l-0.3,0.2l0.3,0.7l0.8-0.4l0.2-0.7l-0.3-0.2l-0.5,0.3L562.2,112.2z
		 M562.4,116h0.5v-0.5h-0.5V116z M563.8,109.7h0.7v-0.4l-0.5-0.5l-0.2,0.6V109.7z M564.1,100.6l0.7-0.3l-0.4-1.7h-0.3V100.6z
		 M564.8,95.9h0.5v-0.5h-0.5V95.9z M566.9,43.6l0.6,0.4l0.2-0.2l-0.1-0.3l-0.5-0.4l-0.1,0.3L566.9,43.6z M567.1,99.7l0.4,0.5
		l0.8-0.3l0.4-0.9l-0.8-0.2l-0.4,0.1l-0.4,0.6V99.7z M570.8,74.5h0.5v-0.9h-0.5V74.5z M575.4,69.4L575.4,69.4l-1.1-0.2l-0.1,0.2
		l1,0.4L575.4,69.4z M574.7,42.9l0.4,0.4l0.9,0.1l0.6,0.3l0.3-0.4l-1.4-0.8l-0.7,0.2L574.7,42.9z M575.7,40.7l0.2-0.3l-0.2-0.6
		l-0.5,0.1l-0.2,0.3l0.4,0.5H575.7z M581.4,48.2V48h0.2l-0.1-0.4l-0.4-0.1l0.1,0.6L581.4,48.2z M582.9,52.5h0.4v-0.4h-0.4V52.5z"/>
	<path class="st0" d="M607.9,68.1l-0.5,1.6l-0.6,1l-0.8,2.8l-1.3,2.8l-0.1,0.8l-0.3,0.3l-0.8,2.5l-0.4,1.1l-0.5,0.6l-0.6,1.9
		l-0.5,0.4l-0.6,2.1l-0.6,0.6l-0.1,1.4l-0.3,0.4l-0.1,0.7l-0.6,1.3l-0.5,0.6l-1.1,2.4v0.7l-0.9,2.1l-0.2,0.7l-0.3,0.3l-0.1,1
		l-0.5,0.9l-0.1,1.2l-1.2,2l-0.6,2.5l-0.5,2.7h-0.2l-0.1,1.1l1,1.4l1.1,0.6h1.2l1.5-0.7l1.9-1.4l0.6-0.2l2.2-2.3l0.8-0.9l0.1-0.6
		l1.5-1.2l0.1-0.6l1.8-2.5l1.7-2.7l1.2-1.5l1-2.9l1.2-2.1l0.3-1.3l0.3-0.3l1.2-3l1.1-3l0.2-1l0.7-1.1l0.9-2.9l0.7-1.5l0.4-1.4
		l0.5-0.4l0.1-0.6l1.4-2.3l0.2-1.5l1.3-2.9l1.3-1.1h4.2l0.2-0.2l1.4,0.2l3.1-0.1l0.9,1l0.1,0.7l-1,3.3l-0.3,1.4l-0.5,0.8l-1,2.9
		l-0.9,2.1V79l-0.5,0.6l-0.2,0.8l-0.5,0.8l-0.3,1l-0.3,0.3l-0.8,2.8l-1.1,2l-0.2,1l-0.5,0.4l-0.3,1l-0.3,0.3l-0.3,1l-0.5,0.6
		l-0.3,1.5l-0.9,2.5l-0.8,1.3l-0.4,1.8l-0.3,0.2l-0.8,3l-1.2,2.9l-0.4,1.7l-0.1,1.7l0.2,1.5l0.3,0.7l1.1,0.9h0.5l0.2,0.2l1.6-0.2
		l1.9-0.6l1.2-1l4.3-4.5l2.2-2.5v-0.4l0.8-1.4l1.3-1.3l0.2-0.7l1.1-1.1l0.9-1.3l0.6-1.3l0.6-0.6v-0.5h0.2v-0.4l1.9-2.7l0.3-0.2
		l1.6-0.2l0.7,0.1v0.3l0.7,0.2l1.1,1.2l0.4,1.3l-0.1,0.8l-0.7,1.5l-1.2,1.5v0.5h-0.2l-1.6,2.9l-1.6,2.6l-1.6,1.9l-0.1,0.4l-0.5,0.1
		v0.2l-1.4,1.4v0.5h-0.2l-0.1,0.4l-0.6,0.5l-0.7,1.3l-1.4,1l-2.3,2.3l-2.4,2l-1.3,1.1l-1,0.3l-0.4,0.6h-0.4v0.2h-0.5v0.2h-0.4v0.2
		h-0.5v0.3l-2.7,0.5l-3.2,0.4l-3.2,0.2l-0.7-0.2l-0.2-0.3l-0.8-0.1l-0.1-0.3H611l-0.1-0.3l-0.8-0.2l-2.1-2.3l-1.3-2.9l-0.6-0.6
		l-0.5-0.1l-0.7,0.2l-2.2,2.1l-1.1,1.1l-0.6,0.2l-2.1,1.6l-1.6,0.6l-0.3,0.3l-1.1,0.3l-0.2,0.2l-3,0.7l-3.1,0.1l-0.9-0.1l-1.6-0.6
		l-1.5-0.8l-2.3-2v-0.4l-0.6-0.4l-0.2-1.7l-0.9-2.5l0.2-3.1l0.4-3.3l0.5-1.4l0.3-0.3l0.1-0.6l0.2-0.1l0.1-2.7l0.3-0.3l1-3l0.9-1.9
		v-0.4h0.2l0.4-1.6h0.3l0.9-2.5l0.8-2.8l0.8-1.3l0.3-1l0.8-1.5l0.4-1.5h0.3l0.1-0.9l1.2-2.7l0.3-0.3V77l1-2.8l0.2-0.8l0.7-0.9
		l0.4-1.4l0.7-1.5l0.4-1.4h0.2l0.1-0.6l1-1.2l1.4-0.2l0.8-0.3l3.1,0.3h3.1l1.4,0.6l0.7,1L607.9,68.1z M588.9,110.2l-0.4-0.7
		l-0.3-0.1l-0.6,0.5l0.7,0.4l1.1,1.1l0.4,0.1l0.3-0.6v-0.5l-0.3-0.2l-0.7,0.1L588.9,110.2z M588.9,113.3v-0.5l-0.5-0.5l-0.4-0.1v0.7
		l0.7,0.4H588.9z M591.2,100.6l0.9-0.1l0.5-0.5l-0.7-0.3H591l0.2,0.7V100.6z M591.4,113.1h0.5v-0.4h-0.5V113.1z M598.1,74.5h0.5
		v-0.4h-0.5V74.5z M602.8,76.1l0.1-0.8l-0.6-0.5l-0.2,0.3l0.2,1H602.8z M609.2,109.5v0.2h-0.9v0.2l1.6,0.5l-0.2-0.7l-0.3-0.1
		L609.2,109.5z M609,104.2l0.3-0.7l-0.3-0.7h-0.4v0.9l0.2,0.4L609,104.2z M609.5,101.5l0.7,0.3l0.4-0.2v-0.5h-0.9l-0.2,0.2V101.5z
		 M610.1,106h0.7v-0.4l-0.3-0.3h-0.4V106z M610.1,109l1.9,0.7l-0.1,1.6l-0.2,0.5l0.4-0.1l0.6-0.6l1.2,0.2l0.3-0.4l-2-1.4l-0.5-0.9
		l0.9-0.5v-0.2l-1.8-0.5l-0.4-0.4l0.1,0.8L610.1,109z M610.8,103l0.5-0.6v-0.5l-0.8,0.3l-0.1,0.3l0.2,0.4L610.8,103z M611,113.3
		l0.5,0.1l0.8-0.2v-0.8l-0.6-0.4l-0.5,0.4L611,113V113.3z M612.5,104.2L612,104l-0.6,0.6l-0.1,0.9l0.7,0.5l0.3,0.7l0.5-0.3l-0.6-0.9
		l0.4-0.2l0.5,0.1l0.7,1l-0.5,0.5v0.4l0.8,0.5l0.1-0.2l-0.2-0.7l0.5-0.7h0.2l-0.3-1.4l0.9-0.5v-0.6l-0.2-0.2l-1.1,0.4l-0.6-0.4H613
		l-0.3,0.6L612.5,104.2z M615,102.8l0.4-0.6l0.1-1.3l-0.2-0.4l-0.8,0.2l-1.3,1.4l-0.2-0.3l-0.8-0.1l-0.3,0.2l0.1,0.4l0.6,0.4
		l0.6,0.1l1.1-0.9h0.5L615,102.8L615,102.8z M613,99.5l0.2,1.2l0.5,0.2v-0.5l0.9-1.3l-0.4-0.2L613,99.5z M613,109l0.4,0.3l0.3-0.5
		l-0.5-0.2L613,109z M613.7,91.7l0.6-0.3v-0.6h-0.5l-0.3,0.2l0.1,0.5L613.7,91.7z M614.3,94.6v1.7l0.7,0.1l0.2-1.6l0.3-0.9l-0.7-0.2
		l-0.4,0.6L614.3,94.6z M614.3,98.4l0.8-0.3v-0.7l-0.3-0.2l-0.4,0.3l-0.1,0.6V98.4z M616.2,100.4l-0.1-0.3l-0.6-0.1l-0.3-0.7h-0.4
		l0.3,0.7l0.8,0.4H616.2z M615.3,108.1h0.4v-0.4h-0.4V108.1z M616.2,98.1l0.4-0.1l0.2-0.3V97l-0.9-0.2l0.3,1.1V98.1z M617.3,90.1
		l-0.9-0.2v0.4l0.3,0.2l0.5-0.2L617.3,90.1z M616.8,98.4l0.9,1.1l0.3-0.7v-0.7l-1,0.3H616.8z M617.5,92.6h0.7l-0.4-0.5h-0.3V92.6z
		 M619.2,94.8l-0.4-0.2l-0.2,0.2l0.1,0.3l0.4-0.1L619.2,94.8z M620.6,87.9l-0.5-0.6l-0.4-0.1l-0.3,0.4l0.3,0.6l0.3,0.2l0.4-0.1
		L620.6,87.9z M620.1,90.1h0.5v-0.5h-0.5V90.1z M622.2,77l0.2,0.7h0.4l0.3-0.9L622.2,77L622.2,77z"/>
	<path class="st0" d="M659.4,67.9l-0.3,1.7l-0.3,0.7l-0.3,0.1l-1.1,2.9l-0.9,2.8l-0.5,0.5l-0.1,1l-0.7,1.2l-0.3,1.3h-0.2l-0.6,1.6
		l-0.3,0.3v0.4l-1.2,2.5l-0.2,1.1h-0.2l-0.7,2.3l-1.1,1.6v0.4h-0.3v0.5H650l-0.4,1.4l-0.7,2.9l-1.2,2.9l-0.8,2.2l-0.5,0.5v0.7
		l-0.6,1.4l-0.1,0.7h-0.2l-0.8,2.8l-0.4,1.7v1.6l1,1.3l1.3,0.7l2.7-0.4l2.6-1.7l1.2-1.4l0.9-0.4l2-2.5l1.8-2.4l2-2.6l0.6-0.6
		l0.3-0.7l0.4-0.2l0.2-0.7l0.5-0.4l0.2-0.7l1.6-2l0.5-1.4l0.9-1.4l1.6-1.3l1.7,0.2l0.9,0.6l1,1.2l0.3,0.8l-0.3,1.5l-1.6,2.9
		l-0.2,0.7l-0.5,0.5v0.4l-0.5,0.7l-0.4,0.2v0.5l-0.9,0.9v0.4h-0.2l-0.3,0.7l-0.4,0.2l-0.2,0.7l-1.2,0.9l-0.2,0.7l-0.5,0.2l-0.1,0.6
		l-0.3,0.3l-0.2,0.7l-0.9,0.7v0.3l-1.7,1.8l-2.2,2.1l-1.1,1.5l-0.7,0.2l-0.7,0.9h-0.3l-2.7,2.1l-1.2,1l-0.5,0.1v0.2l-2.9,0.8
		l-1.4,0.5h-3.1l-2.6,0.2l-0.1-0.2h-0.8l-1.3-0.4l-1.5-0.8l-1-1.7l-0.4-0.2v-1.2l-0.8-1.5l-1-1.3l-0.3-2.9v-3.3l0.7-2.9l0.3-1.5h0.2
		l0.2-1.6l1-2.9l1-2.9l0.5-0.5l0.8-2.3l0.4-0.6l0.4-1.6l0.2-0.2l0.2-1.2l0.4-0.3l0.3-1.5l0.2-0.2v-0.4l0.5-0.5l0.1-0.7l0.7-1.5
		l0.3-0.3l0.9-2.9l0.5-0.9l1.1-2.9l1.4-2.8l0.9-2.2L647,70l0.8-2.1l1.2-1.1l1-0.5h6.8l1.4,0.3l0.7,0.5L659.4,67.9L659.4,67.9z
		 M637.5,108.4l0.5,1.2l0.7-0.3l0.2-0.9l-0.3-0.2L637.5,108.4L637.5,108.4z M641.6,104.9l-0.1,0.3l-0.7,0.2l-0.1,0.4h0.5l0.6-0.4
		l0.3-0.7v-0.5l-0.4-0.7l-0.3-0.2l-0.2,0.2l0.4,1.2V104.9z M640.9,108l0.7-0.3v-0.6h-0.4l-0.3,0.7V108z M642.1,102.4l0.4,0.2
		l0.2-0.4l-0.4-0.2L642.1,102.4z M642.9,89.7l0.7-0.3l0.2-0.6l-0.5-0.2l-0.7,0.3l-0.1,0.3l0.2,0.3L642.9,89.7z M646.5,86.4V86
		l-0.5-0.5l-0.2,0.3l0.1,0.4l0.3,0.2H646.5z M647.6,82.4l0.1,0.9l0.3,0.7l0.3,0.2l0.3-0.4l-0.3-0.9l1-0.3l0.1-0.4L647.6,82.4
		L647.6,82.4z M649.3,79.9h0.4l0.3-0.4l-0.7,0.2V79.9z M653.2,75.3l-0.6-1.4l-0.3-0.2h-0.5l0.7,1.6l0.5,0.1L653.2,75.3z M665.9,56.3
		l-0.3,0.2v0.4l-0.8,1.3l-0.5,0.5l-2.7,1.6l-0.5,0.1l-0.5,0.6h-1.5l-3.3-0.6l-1.2-0.7l-0.6-0.6l-0.1-0.6l-0.4-0.2l-1.3-2.9l-0.2-1.4
		l0.3-1.8l0.8-1.5l0.4-0.2l0.8-1.3l0.8-0.9l0.7-0.1l0.5-0.4l2.9-0.4l3.2,0.9l2.3,1.9L665,51l0.3,0.3l0.4,1.2l0.2,3.4V56.3z
		 M661.1,53.9l0.5,0.2l0.2-0.5l-0.4-0.2l-0.2,0.3L661.1,53.9z"/>
	<path class="st0" d="M699.2,111l1.8-0.1l1.6-0.5l2.6-1.7l2.2-2l0.3-0.3l0.1-0.6l0.6-0.5l0.3-0.6l2-2.1v-0.4l0.5-0.2l1.8-2.5
		l1.5-2.5l1.1-1.3l0.3-0.8l0.6-0.5l0.1-0.6h0.2v-0.4l0.5-0.5l0.2-0.7l1.5-1.8l1.6-0.2l1.5,0.6l1,1.2l0.4,0.8v1.3l-1.6,3l-0.1,0.5
		l-0.4,0.2v0.4l-0.5,0.5v0.4l-1,1.2l-0.4,0.2l-0.2,0.7l-0.7,0.4l-0.2,0.7l-1.6,2.3l-0.9,1.3l-1.2,1.2l-0.5,1l-0.4,0.2l-1.3,1.9
		l-1.2,1.1l-0.6,1h-0.4l-1,1.1l-2.6,1.9l-0.5,0.1l-0.2,0.5l-0.6,0.1l-0.7,0.5l-0.8,0.2l-2.1,1.2l-1.4,0.4h-1.8l-0.3,0.2l-1.2,0.1
		l-0.6,0.4l-3.2-0.3l-2.9-1l-0.3-0.3l-0.6-0.1l-0.4-0.7l-1.7-1.8l-0.1-0.7l-0.5-0.5v-0.4l-0.9-0.7l-0.8,0.1l-2.5,1.9l-0.3,0.3
		l-0.7,0.2l-2.6,1.9l-1.2,0.8l-0.7,0.2l-0.5,0.5l-3,0.4l-3,0.1l-1.8-0.1l-0.2-0.2h-0.5v-0.2H668v-0.2l-0.8-0.2l-0.4-0.5h-0.4l-1-1.2
		l-1.3-1.1v-0.4l-1.4-2.7l-0.1-0.7l-0.5-0.7l-0.1-1.4l-0.4-1.3l0.5-3.1l0.2-3.1l0.6-1.8l0.2-1.8l0.8-3l1-3.9l0.6-0.9v-0.9h0.2l1-2.9
		l1.2-3l1.5-2.7l1.2-2.2l1.3-2.8l2.1-2.5l2.6-2.6l0.2-0.7l1.2-1.2l1.3-0.8l0.2-0.3l0.4-0.1l1.9-1.4l1.1-0.3l0.9-0.5l3.1-0.7l1.5-0.1
		l3,0.5l1.3,0.1v0.2l1.4,0.6l2.3,2.3l1.7,2.1l0.9,0.1l0.7-0.3l1.4-2.9l1.1-2.9l1.3-2.8l1.2-2.9l0.9-2.6l0.9-2.5l0.8-1.3l0.9-2.5
		l1.3-2.8l1.3-0.9l0.6-0.2h3.4l2.9,0.3h0.5l0.2-0.2h0.7l0.2,0.2h0.4l1,1.2v1.5l-1.1,2.9l-1.3,2.9l-0.1,0.7l-0.3,0.2l-0.4,1.4
		l-0.5,0.7l-0.4,2l-0.3,0.2l-1.3,2.9l-1,2.4l-1,2.6l-0.3,0.2l-1,2.9l-0.3,0.7v0.5l-0.6,0.5l-0.6,1.5l-0.6,2.9l-1.4,2.3l-1.2,3.1
		l-0.7,1.4l-1,3l-1.3,3l-1.2,2.9l-1,2.6l-1.1,2.9l-1.2,3l-0.1,0.5l-0.5,0.5l-0.6,2.8l-0.4,3.4l0.3,1.1l0.4,0.5l0.7,0.4L699.2,111z
		 M666.4,107.6l0.4-0.6v-0.3l-0.6-0.2l-0.3,0.8l0.3,0.3H666.4z M669.3,113.4l-0.1-0.7l-0.3-0.2h-0.7l0.3,0.7l0.6,0.2H669.3z
		 M669.5,106.4h0.5l0.1-0.2l-0.2-0.3h-0.4l-0.2,0.2l0.2,0.1V106.4z M670,95.8l0.5,0.2l0.2-0.4l-0.5-0.2L670,95.8z M670.7,104.1
		l0.4,0.2l0.3-0.4l-0.5-0.3l-0.1,0.3L670.7,104.1z M673.1,92.1l-0.1-0.8l-0.6-0.4v0.8l0.5,0.4H673.1z M672.6,89.2h0.5v-0.4h-0.5
		V89.2z M673.1,86.3l0.4,0.2l0.3-0.4l-0.5-0.3l-0.1,0.3L673.1,86.3z M679.5,108.3l2.7-1.7l2.4-2.1l1-1.3l1.2-1l0.1-0.6l0.6-0.3
		l0.1-0.6l0.5-0.6l0.4-1.6l0.8-1.5l0.5-1.8l0.5-0.6l0.4-1.6l1.1-2.8l0.2-0.2l0.1-0.7l1-2.1l0.1-0.8l1.6-2.8l0.5-1.6v-1.7l-0.3-1.6
		l-1-2l-1.9-1.9l-1.9-0.5l-0.6,0.3h-0.4l-0.7,0.5l-0.6,0.1l-0.4,0.6l-0.7,0.1l-0.9,0.9l-0.7,0.2l-0.8,0.9l-0.2,0.7l-2.1,2.3
		l-0.9,1.2l-0.4,1.1l-0.6,0.4l-0.2,0.9l-1,1.5l-0.1,0.8l-0.5,0.7l-1.1,2.5l-1.2,2.9l-0.7,1.5l-0.8,2.9l-0.6,3l-0.3,3.1v2.6l0.2,1.4
		l1.4,1l0.7,0.3h1.6l1.7-0.5L679.5,108.3z M674.9,84h0.7v-0.7h-0.5l-0.2,0.5V84z M679.3,77.2h0.5v-0.5h-0.5V77.2z M680.4,76.7
		l0.6,0.5h0.4l0.2-0.2v-0.4l-0.3-0.3l-0.8,0.2L680.4,76.7z M685.6,72.7l-0.6-0.2l-0.1,0.4l0.3,0.2l0.4-0.2V72.7z M686.7,106.8v-0.4
		l-0.5-0.2l-0.1,0.4l0.3,0.2H686.7z M687.6,109v-1.2l-0.5-0.2l-0.2,0.8l0.1,0.5l0.3,0.1H687.6z M688.9,107.8l-0.3,0.1l-0.1,0.4
		l0.8-0.1l0.5-0.4l0.1-0.4h-0.4l-0.4,0.3L688.9,107.8z M689.9,105l-0.1-0.4l-0.9-0.3v0.5l0.2,0.2H689.9z M688.9,110.1l1,0.5h0.4
		l0.2-0.9l-0.3-0.2h-0.5l-0.7,0.4L688.9,110.1z M690.7,101.3l0.2-0.4l-0.7,0.1l-0.1,0.3l0.4,0.1L690.7,101.3z M693.2,102.7l-1.6,0.4
		l-0.3,0.3l0.1,0.4l0.3,0.2h0.8l0.8,0.3l0.1,0.2h0.4l0.3-0.4l-0.2-0.7L693.2,102.7z M692.7,109.4l-0.1-0.4l-0.4-0.4l-0.2,0.1
		l0.3,0.2l0.1,0.6L692.7,109.4z M692.9,112.4l0.3-1.2l-0.7-0.2l-0.3,0.7l0.3,0.7H692.9z M693.4,99.7l-0.3-0.2l-0.2,0.2v0.6l1.8-0.2
		l-0.1-0.5l-0.2-0.1l-0.8,0.2H693.4z M694.5,93.7l0.3-0.7l-0.2-1.3l-1.2-0.1l0.1,0.9L694.5,93.7L694.5,93.7z M694.5,105.5l-0.7-0.3
		l0.1,0.4l0.6,0.1V105.5z M695.2,96.7l-0.2-0.8l-0.5-0.5l-0.3,1l0.7,0.3H695.2z M695,109.7l-0.2-1.2l-0.5-0.2l0.2,1.2l0.3,0.2H695z
		 M694.5,101.5l0.5,0.2l0.2-0.4l-0.5-0.3l-0.1,0.3L694.5,101.5z M696.2,96.7l0.1-0.4l-0.3-0.7l-0.3,0.1v0.8l0.3,0.2H696.2z
		 M696,97.9v0.6l0.4,0.1l0.2,0.3l0.5,0.1l0.2-0.8l-0.7-0.6l-0.4,0.1L696,97.9z M697.1,88.8l0.5,0.2l0.2-0.5l-0.4-0.2l-0.2,0.3
		L697.1,88.8z M698.5,87.9l0.5-0.1l1.2,0.5l0.3-0.7l-0.7-0.1l-0.2-0.3l-0.8,0.2l-0.2,0.3L698.5,87.9z M699.2,82.3v-0.4l-0.5-0.5v0.8
		l0.3,0.1H699.2z M701.4,81.9l-1.6,0.3l-0.9,0.6l0.1,0.9l0.6,0.9v1.1l0.4-0.1l0.5-1l-0.7-0.7l0.5-0.1l1.6-1.9l0.8,0.2l0.8-0.2
		l-0.1-0.5l-0.6-0.5l-0.4-0.1l-0.3-0.5h-0.7V81.9z M701,90.9l-1.1-1l-0.7-0.1l-0.2,0.8l0.2,0.4l0.8,0.3l0.9-0.2L701,90.9z M701,87.4
		l0.1,0.4l0.6,0.7h0.3l0.1-0.2l-0.9-1.8l-0.8-0.2l-0.8,0.1l-0.2,0.3l0.2,0.1v0.4l1.1,0.2H701z M701.2,75.6l-0.4-0.2l-1,0.4l0.2,0.7
		l-0.4,1.1L700,79l0.5,1l0.9-1.8l-0.7-0.1l-0.2-0.3l0.4-0.2l1.4,0.4l0.1-0.6l0.2-0.1l-0.1-0.4l-0.5-0.5l-0.3-1.2l0.2-1l-0.7-0.3
		l-0.2,0.7l0.2,0.7V75.6z M701.4,86.1l0.5-0.1l0.4-0.6l-0.9-0.3V86.1z M704.3,76.5l0.7-0.3l0.4-1.3l-0.6-0.2l-0.4,0.1l-0.1,1.5V76.5
		z M705.6,72.4l0.3-1.1l-0.9-0.2l0.1,0.8l0.3,0.4L705.6,72.4z M706.3,67.1l0.8-0.3l-0.1-0.6l-0.7-0.2l-0.2,0.4l0.1,0.5L706.3,67.1z
		 M706.8,74.5h0.4V74h-0.4V74.5z M707.9,67.3l-0.2,1.6l0.2,0.5l0.7-0.3l0.5-0.6l0.4-1.2l-0.1-0.3l-1.5-1h-0.6l-0.1,0.2l0.7,0.9V67.3
		z M710.5,56.2l0.5,0.2l0.2-0.4l-0.5-0.2L710.5,56.2z M712.1,59.2l-0.1-0.6L712.1,59.2L712.1,59.2z"/>
	<path class="st0" d="M744.5,65.3l0.2-0.2h3.1l1.3,0.4l0.2,0.3l1.6,0.4l1.2,0.9l1.2,0.4l2.2,2.3l0.6,0.5l0.3,0.7l0.4,0.2v0.5
		l0.5,0.4l0.3,3l0.3,3.1l-0.2,1.6l-0.4,1.1l-0.5,2.7l-0.9,2l-0.5,0.5l-0.6,1.8l-0.5,0.2l-0.1,0.7l-1.6,2.4l-2.4,2.3l-2.6,1.8
		l-1.4,0.8l-0.5,0.1l-0.4,0.5h-0.5v0.2l-2.9,0.9l-1.7,0.4h-0.8l-0.7,0.3h-3l-6.3,0.2l-0.4,0.1l-1.2,1.1l-0.3,0.7l-0.3,3l0.1,3h0.2
		l0.2,0.7l1.8,2.3l1.5,1.1l1,0.5l3.3,0.6l3.2-0.1l1.4-0.3l3-1.2l3-1.3l2.2-1.7h0.5l0.2-0.4h0.4l1.1-1.2l0.9-0.3l1-1.3l0.9-0.4l0.7-1
		l1.3-1l1.9-2.5l2-2.5l1.9-2.5l1.3-1.7l0.8-1.3l1.7-0.1l1.4,0.2l1.4,1.3l0.4,1.3l-0.6,2l-0.6,0.6l-0.3,0.8l-1,1.1l-1.8,2.6l-0.1,0.7
		l-1.1,1.1v0.5l-4.3,4.5l-4,4l-1.3,0.8l-0.2,0.3l-0.7,0.1l-0.6,0.6l-2.5,1.7l-0.4,0.1l-0.5,0.6h-0.5v0.2l-1.6,0.4l-0.2,0.3l-1.6,0.3
		l-3,0.9l-0.4,0.1l-0.2,0.3l-3.1,0.4h-0.2v0.2l-2.3,0.2l-0.7,0.3l-3.2-0.3h-1.5l-2.5-0.8l-1.6-0.2l-3-1.4l-1.2-0.7l-0.6-0.6
		l-0.8-0.3l-0.4-0.9l-0.5-0.2l-0.2-0.7l-1.3-1.8l-0.8-2.8l-0.4-3.1l-0.2-3l0.3-3.1l0.4-1.6l0.1-1.6l0.7-2.9l0.9-2.9l0.1-1.2l0.2-0.2
		l0.4-1.4l1.2-2.2l1.2-2.6l0.5-0.8l0.2-0.7l0.6-0.4l0.4-1.2h0.2l1.5-2.6l0.5-0.6l0.3-0.8l2.2-2.1l1.2-1l2.1-2.3l0.8-0.9l1.2-0.6
		l1.4-1l1.1-0.4l0.5-0.6l1.5-0.7l2.9-0.9l3-0.2H744.5z M720.9,103.8l-0.6-0.2l-0.1,0.4l0.3,0.2l0.4-0.2V103.8z M721.3,107.2h0.5
		v-0.5h-0.5V107.2z M721.5,95.2h0.5v-0.9h-0.5V95.2z M721.8,100.7l0.6,0.2l-0.1-0.4l-0.3-0.2L721.8,100.7z M723.1,94v0.4l0.7,0.3
		l0.5-0.3V94l-1-0.1L723.1,94z M723.8,100.7l0.1,0.8l1.3,0.4l0.2-1.2l-0.2-0.2l-0.6,0.3l-0.6-0.1H723.8z M726.2,90v0.4l0.2,0.1
		l0.3-0.6l-0.3-0.2v0.2L726.2,90z M727.3,86l1.2-1.5l0.2-0.6l-0.7-0.2l-0.8,0.1l-0.3,1.6l0.2,0.5L727.3,86z M727.5,87.6l0.5,0.2
		l0.2-0.5l-0.4-0.2l-0.2,0.3L727.5,87.6z M745.1,75.1l-1.7-0.1l-2.3,0.8l-0.6,0.1l-2.2,1.9H738l-2.1,2.5l-1.7,2.7l-1.5,2.7l-0.1,0.5
		h-0.3v0.4h-0.2l-0.1,0.7l-1.2,2.5l-0.1,0.7l0.7,0.9l0.6,0.3h3.6l1.2-0.1l0.6-0.5l0.8-0.2l2.1-1.2l0.2-0.3l0.6-0.1l2.1-2.4l1.1-1.9
		l1.3-2.9l1.2-3.1l0.2-2.2l-1.1-1.2L745.1,75.1z M731.2,79.5l1-0.3l0.3,0.1v-0.7l-0.8,0.1l-0.5,0.6V79.5z M734.5,77.5l0.2-0.4
		l-0.2-0.5h-0.3L734,77l0.2,0.5L734.5,77.5z M746,70l0.7,0.2l0.3-0.5l-0.8-0.1L746,70z M748.8,73.7v-0.5l-0.2-0.3l-0.5-0.1l0.1,0.8
		l0.4,0.1H748.8z M750.7,82.7l-0.2-0.6L750,82l0.1,0.4l0.4,0.3H750.7z M750.2,80h0.5v-0.9h-0.5V80z M750.5,69.7l0.3,0.2l0.4-0.1
		l0.2-0.3l-0.4-0.2l-0.5,0.2V69.7z M752.5,77.9l-0.6-0.2l-0.1,0.4l0.4,0.2l0.3-0.2V77.9z M753,76.9l0.8-0.1l0.8-0.6l-0.8-0.3
		l-1.3-0.1v0.5l0.4,0.4L753,76.9z"/>
	<text transform="matrix(1 0 0 1 686.4678 149.6469)" class="st1 st2 st3">SALZBURG</text>
	<path class="st4" d="M225.1,52.1c10.7,0,19.5,2.9,19.5,13.7c0,7.8-4.5,12.9-10,16.5c5,2.2,8.4,6.2,8.4,12.4
		c0,14.2-11,22.8-30.6,22.8h-23.7l11.5-65.4H225.1z M207.8,104.7h6.4c8.6,0,10.6-4.3,10.6-9c0-3.9-2.8-5.9-7.6-5.9h-6.8L207.8,104.7
		z M212.5,77.8h4.7c6.7,0,9.7-3.8,9.7-8.3c0-4-2.9-5.2-6.7-5.2h-5.4L212.5,77.8z"/>
	<path class="st4" d="M260,117.5h-16.9l11.5-65.4H278c13.9,0,22.3,4.8,22.3,16c0,10.3-6.4,16.5-13.9,19.2c2.2,1.1,3,2.9,4,6.2
		l6.5,24h-18.2l-5.1-21.2c-0.7-2.6-2.1-3.6-4.6-3.6h-4.7L260,117.5z M272.9,80.7c5.9,0,9.7-3.7,9.7-9.9c0-4.3-2.9-5.5-8.4-5.5h-5
		l-2.8,15.4H272.9z"/>
	<path class="st4" d="M314.3,52.1h42.8l-2.7,14.8h-25.8l-1.8,10H349l-2.6,14.6h-22.1l-2.1,11.3h26.6l-2.6,14.8h-43.5L314.3,52.1z"/>
	<path class="st4" d="M414.5,52.1l-2.7,14.8h-18l-9,50.7h-16.8l8.9-50.7h-17.4l2.6-14.8H414.5z"/>
	<path class="st4" d="M471.8,52.1l-2.7,14.8h-18l-9,50.7h-16.8l8.9-50.7h-17.4l2.6-14.8H471.8z"/>
	<path class="st4" d="M477,52.1h16.8l-8.9,50.6H511l-2.7,14.9h-42.9L477,52.1z"/>
	<polygon class="st5" points="119.9,100.1 123,87.3 134.4,82.4 138.9,69.5 135.3,62.6 136.5,53.1 137.1,41.5 135.1,45.1 125.9,57 
		103.9,73.7 98.2,69.3 94.3,73.3 66.9,97.3 63.9,99.6 58.8,113.1 57.6,117.5 103.3,117.5 109.8,111.9 	"/>
	<polygon class="st5" points="155.4,85.8 148.6,89.4 145.8,74.6 142.3,88.6 146.9,117.5 147.6,117.5 148,100.4 	"/>
	<polygon class="st6" points="122.8,98.3 122.9,97.1 122.4,96.7 122.4,97.4 122.1,97.6 121.3,97.7 121,97.9 121,98.1 121.7,98.5 
		122.4,98.5 	"/>
	<polygon class="st6" points="122.4,112.3 123.1,112 123.3,111.4 122.4,111.2 	"/>
	<polygon class="st6" points="123.1,108.6 123,108.8 123.4,109 123.8,108.9 123.9,108.3 123.5,108.3 	"/>
	<polygon class="st6" points="124.4,95.4 124.6,95.4 124.6,95.8 125.4,96.2 125.4,97.7 125.7,98 126.9,98.1 127.9,97.6 128.4,97.7 
		128.6,97.4 128.1,97 127,96.7 125.1,94.4 124.2,94.3 124,94.5 124.4,94.9 	"/>
	<polygon class="st6" points="125.3,100 124.8,100 124.4,100.5 124.4,100.7 124.7,100.9 125.2,100.5 	"/>
	<polygon class="st6" points="125.1,116.6 124.9,116.7 125.4,117.3 126.1,117.2 126.4,116.7 125.6,116.5 	"/>
	<polygon class="st6" points="127.5,100.8 126.4,100.3 126.5,101 127.3,101.7 127.5,102.1 127.5,102.3 126.9,102.6 126.9,103 
		128,102.8 128.8,103.3 128.8,103 128.6,102.9 128.9,102.1 	"/>
	<polygon class="st6" points="128.5,95.6 129.2,95.8 129.5,96.5 130,96.5 130.2,95.7 129.7,95.1 128.7,94.4 128.2,94.3 127.8,94.8 
		127.7,94.9 127.1,95.2 126.9,95.5 127.2,96 	"/>
	<rect x="127.2" y="116.4" class="st6" width="0.5" height="0.4"/>
	<polygon class="st6" points="130,97.4 129.6,97.4 129,97.8 128.8,98.4 128.8,98.6 129.6,98.4 130,97.9 	"/>
	<polygon class="st6" points="130.1,98.6 130,98.7 130.2,98.9 130.5,98.6 130.2,98.3 	"/>
	<polygon class="st6" points="132.2,97.9 132.7,97 131.7,95.9 131.5,95.8 130.4,96.8 131.5,98.7 130.9,99.2 131,99.5 131.3,99.6 
		131.5,99.4 132.7,99.6 133,99.1 132.9,98.6 	"/>
	<polygon class="st6" points="135.5,98.8 135.1,98.7 134.2,100.1 134.2,100.3 134.6,100.1 136,100.3 136.2,99.9 135.7,99.6 	"/>
	<polygon class="st6" points="138.9,97.9 138.6,98 138.5,98.1 138.5,98.5 138.7,98.6 139.5,98.7 139.2,98.1 	"/>
	<polygon class="st6" points="151.6,116.5 151.7,116.8 151.8,117 151.8,117.5 152.2,117.5 152.2,116.4 	"/>
	<polygon class="st6" points="152.3,115.7 152.3,115.9 152.2,116.1 152.7,116.1 153.2,115.7 153.3,115 152.9,115.1 	"/>
	<polygon class="st6" points="156.9,116.1 156.4,115.7 156.1,115.7 155.8,116.3 156.1,117.2 156.1,117.4 156,117.5 156.7,117.5 
		156.7,117.2 	"/>
	<polygon class="st6" points="154.9,108.8 155,109.7 155.7,110.5 156.1,110.6 156.3,110.7 156.3,110.1 155.6,108.8 	"/>
	<polygon class="st6" points="155.1,114.8 155.8,114.8 155.8,114.4 155.1,114.1 	"/>
	<polygon class="st6" points="157.5,111.4 157.5,113.4 158.2,113.1 157.8,111.4 	"/>
	<rect x="158.2" y="108.3" class="st6" width="0.5" height="0.5"/>
	<polygon class="st6" points="160.9,111.7 160.5,112.3 160.5,112.5 160.9,113 161.7,112.7 162.1,111.8 161.3,111.6 	"/>
	<polygon class="st5" points="130.1,98.6 130,98.7 130.2,98.9 130.5,98.6 130.2,98.3 	"/>
	<polygon class="st5" points="130,97.4 129.6,97.4 129,97.8 128.8,98.4 128.8,98.6 129.6,98.4 130,97.9 	"/>
	<polygon class="st5" points="127.5,100.8 126.4,100.3 126.5,101 127.3,101.7 127.5,102.1 127.5,102.3 126.9,102.6 126.9,103 
		128,102.8 128.8,103.3 128.8,103 128.6,102.9 128.9,102.1 	"/>
	<rect x="127.2" y="116.4" class="st5" width="0.5" height="0.4"/>
	<polygon class="st5" points="135.5,98.8 135.1,98.7 134.2,100.1 134.2,100.3 134.6,100.1 136,100.3 136.2,99.9 135.7,99.6 	"/>
	<polygon class="st5" points="125.1,116.6 124.9,116.7 125.4,117.3 126.1,117.2 126.4,116.7 125.6,116.5 	"/>
	<polygon class="st5" points="138.9,97.9 138.6,98 138.5,98.1 138.5,98.5 138.7,98.6 139.5,98.7 139.2,98.1 	"/>
	<polygon class="st5" points="132.2,97.9 132.7,97 131.7,95.9 131.5,95.8 130.4,96.8 131.5,98.7 130.9,99.2 131,99.5 131.3,99.6 
		131.5,99.4 132.7,99.6 133,99.1 132.9,98.6 	"/>
	<polygon class="st5" points="125.3,100 124.8,100 124.4,100.5 124.4,100.7 124.7,100.9 125.2,100.5 	"/>
	<polygon class="st5" points="124.4,95.4 124.6,95.4 124.6,95.8 125.4,96.2 125.4,97.7 125.7,98 126.9,98.1 127.9,97.6 128.4,97.7 
		128.6,97.4 128.1,97 127,96.7 125.1,94.4 124.2,94.3 124,94.5 124.4,94.9 	"/>
	<polygon class="st5" points="123.1,108.6 123,108.8 123.4,109 123.8,108.9 123.9,108.3 123.5,108.3 	"/>
	<polygon class="st5" points="122.4,112.3 123.1,112 123.3,111.4 122.4,111.2 	"/>
	<polygon class="st5" points="128.5,95.6 129.2,95.8 129.5,96.5 130,96.5 130.2,95.7 129.7,95.1 128.7,94.4 128.2,94.3 127.8,94.8 
		127.7,94.9 127.1,95.2 126.9,95.5 127.2,96 	"/>
	<polygon class="st5" points="122.8,98.3 122.9,97.1 122.4,96.7 122.4,97.4 122.1,97.6 121.3,97.7 121,97.9 121,98.1 121.7,98.5 
		122.4,98.5 	"/>
	<polygon class="st5" points="160.9,111.7 160.5,112.3 160.5,112.5 160.9,113 161.7,112.7 162.1,111.8 161.3,111.6 	"/>
	<rect x="158.2" y="108.3" class="st5" width="0.5" height="0.5"/>
	<polygon class="st5" points="157.5,111.4 157.5,113.4 158.2,113.1 157.8,111.4 	"/>
	<polygon class="st5" points="152.3,115.7 152.3,115.9 152.2,116.1 152.7,116.1 153.2,115.7 153.3,115 152.9,115.1 	"/>
	<polygon class="st5" points="154.9,108.8 155,109.7 155.7,110.5 156.1,110.6 156.3,110.7 156.3,110.1 155.6,108.8 	"/>
	<polygon class="st5" points="155.1,114.8 155.8,114.8 155.8,114.4 155.1,114.1 	"/>
	<path class="st0" d="M182.5,59.2l-14.9-11.6l-10.7,4l-5.4-5.2l-5.3-12.8l-6.7-7.9l-10.6,14.8l-8.5,11L104,64.3l-6.5-5.1l-8.2,8.6
		L79,76.7l1.1,0.4l-0.3,0.6l-0.2,1.1L79.3,79l-0.5-0.9l0-1.2l-2.5,2.2l0.2,0.1l-0.4,0.9l0,0.4l0.9,0.3l0.2,0.3l-0.4,0.3l-1.4-0.1
		l-0.5,0.8l-0.5-0.1l0.1-0.5l-0.8-0.2L72,82.8l0.3-0.1l0.7,0l0.1,0l0.6-0.2l0.4,0.3l0.5,1.1l0.1,0.8l-0.6,0.6L73.7,85l0.1-0.7
		l-0.5-0.5L72,83.4l0-0.6l-0.6,0.5l0.1,0.5l0.8,0.8l0.2,0.6l-0.3,0.2l-0.4-0.3L70.7,85L70,84.5l-7.8,6.8L54,97.7l-4.5,6.4L39,112
		l-3.5,5.4h22.1l1.2-4.4l5.1-13.5l3.1-2.4l27.4-23.9l3.9-4.1l5.7,4.5l22-16.7l9.2-11.9l2-3.6l-0.6,11.7l-1.2,9.4l3.6,6.9L135,80.6
		h0.3l-0.6,0.8l-0.3,0.9l-11.3,5l-3.2,12.8l-10.1,11.8l-6.4,5.5h43.5l-4.5-28.9l3.5-14l2.8,14.8l6.8-3.6l-7.4,14.6l-0.5,17.1h4.2
		l0-0.4l-0.1-0.2l-0.1-0.3l0.6-0.2v1.1h3.7l0.1,0v-0.2l-0.3-1l0.3-0.6h0.3l0.6,0.4l-0.3,1.2l0,0.2h17.6l9.8-52.8L182.5,59.2z
		 M56.9,105.5l-0.4,0.2l-0.1-0.2l0.1-0.5l0.3-0.2l0.2,0.1L56.9,105.5z M57.6,103.1l-0.6-0.5l-0.1-0.3l0.3-0.9l-0.2-0.4l0.2-0.1
		l0.6-0.1l0.7,0.4L57.6,103.1z M60.2,101.1l-0.6-0.3l-0.1-0.8l0.2,0l0.5,0.2l0.6,0.6L60.2,101.1z M60.3,95.1L59.6,95l0.5-0.9
		l0.7,0.6L60.3,95.1z M61.9,101.5l-0.4-0.2l0.2-0.3l0.4,0.2L61.9,101.5z M62.5,92.7l-0.4-0.1l-0.2-0.4l0.2-0.1l0.5-0.1l0.3,0.2
		L62.5,92.7z M69.8,90.2l-0.2,0.3l-0.4-0.8l-1.1-0.4l0.3-0.3l0.7,0l0.1-0.2l0-0.4l-0.4-1l0.3-0.6l0.8,1l0.5,1.8L69.7,90L69.8,90.2z
		 M72,86.4l0.1-0.2l0.5-0.4l0.7,0l0.3,0.2l-0.2,0.4l-0.6,0.2L72,86.4z M73,87.2l0.2-0.1l0.2-0.2l0.1,0.4L73,87.4L73,87.2z
		 M75.6,88.6L75.4,89l-0.6,0.2l-0.9-0.8l-0.3,0.1l-0.2-0.2l0.1-0.3l0.8-0.1l0.1-2.2l1.4-0.3l0.1,0.2l0.3,1.4l-0.9,0.5L75.6,88.6z
		 M78.7,84.8l-0.9-0.5l0.2-0.4l0.7,0.2l0.1,0.6L78.7,84.8z M79.3,82L79,82.2L78.9,82l-0.3-0.3l-0.2-1.2l0.5-0.5l0.8,1.4L79.3,82z
		 M84.3,75.8l0.4,0.5l-0.1,0.2l-0.4,0L84,76.1L84.3,75.8z M82.3,76.6l-0.2,0.7l-0.3-0.1l-0.2-0.5l0.2-0.7l-0.3-0.8l0.2-0.3l0.2,0
		l1.1,0.8l0.1,0.3L82.3,76.6z M84.7,78.5l-0.9-0.3l0.1-0.2l0.6-0.4l0.4,0.6L84.7,78.5z M85.7,74.7l-0.1-0.2l0.1-0.5l0.4-0.1l0.7,0.4
		L85.7,74.7z M88.9,69.6l-0.3-0.2l0.2-0.3l0.3,0.2L88.9,69.6z M93.8,70.2L93.1,70L93,69.8l0.2-0.4l0.2,0.1l0.1-0.2l0.5,0.5
		L93.8,70.2z M99.8,69.6l-0.4,0l-0.2-1.2l-1.1,0.3l-1.4-0.1l0-0.8l0.2,0.2l0.7,0.4l0.6-0.2l0.3-0.4l0.4,0.2l0.3-0.2l0.7,1.3
		L99.8,69.6z M101.9,69l-0.5-0.3l0.2-0.4l0.3,0.4L101.9,69z M106,66.5l-0.4-0.2l0.2-0.4l0.4,0.2L106,66.5z M106.7,63.3l-0.6-0.3
		l0.2-0.3l0.5,0.4L106.7,63.3z M110.1,67.1l-0.4-0.2l0.2-0.4l0.4,0.2L110.1,67.1z M111.6,64.9l-0.4-0.2l0.2-0.4l0.4,0.2L111.6,64.9z
		 M138.5,73.1h0.2v-0.2l0.7,0.2v0.5l-0.7,0.2l-0.2-0.2V73.1z M134.8,85.4l0.3-0.7l0.6,0.3v0.4l-0.9,0.2V85.4z M131.3,83.8l0.2-0.1
		l1.4,0.1L133,84l-0.4,0.9l0.2,0.7l-0.3,0.1l-0.4-0.3l-0.2-0.7l-0.7-0.5V83.8z M132.9,90.4v0.7l-0.2,0.3l-0.2-0.1l-0.4-0.1l-0.8-0.9
		l0.2-0.7L132.9,90.4z M129.8,86.6l1.3-0.2v0.7l0.4,1.1l-0.2,0.3l-0.9-0.5L129.8,86.6L129.8,86.6z M127.7,92.2v-1.7h0.2l0.5-0.1
		l0.2-0.3h0.4l0.1,1l0.2,0.3l1-0.2l0.3,0.2l-0.2,0.5l-1.3,0.6v1l-0.5,0.2l-0.2-0.5l-0.9,0.3L127.7,92.2z M127.1,95.2l0.6-0.3
		l0.1-0.1l0.4-0.5l0.5,0.1l1,0.7l0.5,0.6l-0.2,0.8h-0.5l-0.3-0.7l-0.7-0.2l-1.3,0.4l-0.3-0.5L127.1,95.2z M121,98.1v-0.2l0.3-0.2
		l0.8-0.1l0.3-0.2v-0.7l0.5,0.4l-0.1,1.2l-0.4,0.2h-0.7L121,98.1z M123.1,112l-0.7,0.3v-1.1l0.9,0.2L123.1,112z M123.8,108.9
		l-0.4,0.1l-0.4-0.2l0.1-0.2l0.4-0.3h0.4L123.8,108.9z M124.2,94.3l0.9,0.1l2,2.3l1.1,0.3l0.5,0.4l-0.2,0.3l-0.5-0.1l-1,0.5
		l-1.3-0.1l-0.3-0.3v-1.5l-0.8-0.4v-0.4h-0.2v-0.5l-0.4-0.4L124.2,94.3z M124.4,100.7v-0.2l0.4-0.5h0.5l-0.1,0.5l-0.5,0.4
		L124.4,100.7z M126.1,117.2l-0.7,0.1l-0.5-0.6l0.2-0.1l0.5-0.1l0.8,0.2L126.1,117.2z M127.7,116.7h-0.5v-0.4h0.5V116.7z M128.8,103
		v0.3l-0.8-0.5l-1.2,0.2l0.1-0.4l0.6-0.3v-0.2l-0.2-0.4l-0.9-0.7l-0.1-0.7l1.2,0.5l1.4,1.3l-0.3,0.8L128.8,103z M128.8,98.6v-0.2
		l0.2-0.6l0.6-0.4h0.4v0.5l-0.4,0.5L128.8,98.6z M130.2,98.9l-0.2-0.2l0.1-0.2l0.1-0.3l0.3,0.3L130.2,98.9z M132.7,99.6l-1.2-0.2
		l-0.2,0.2l-0.3-0.1l-0.1-0.3l0.6-0.5l-1.1-2l1.1-1l0.2,0.1l1,1.1l-0.5,0.9l0.8,0.8l0.1,0.5L132.7,99.6z M133.7,93.8h-1.1v-0.5
		l0.7-0.2l0.4,0.5V93.8z M134,83.2l0.6,0.2v0.2l-0.3,0.2l-0.4-0.2L134,83.2z M136,100.3l-1.4-0.2l-0.4,0.2v-0.2l0.9-1.4l0.4,0.1
		l0.2,0.8l0.5,0.3L136,100.3z M138.7,98.6l-0.2-0.2v-0.4l0.1-0.1l0.4-0.1l0.3,0.2l0.3,0.7L138.7,98.6z M142.4,72.5V72l0.6,0.1
		l0.1,0.4H142.4z M143.9,70.2l-0.8-0.9l-0.8,0.8l-1.3,0.6l-0.4-0.7l0.3,0.1h0.8l0.4-0.5l0.1-0.5h0.5l0.2-0.3l1.3,0.8l0.1,0.4
		L143.9,70.2z M145.1,68.5V68l0.5,0.2l0.1,0.3H145.1z M146.2,61.1v-0.4l0.6,0.1l0.1,0.3H146.2z M148,64.2h-0.5v-0.5h0.5V64.2z
		 M151.5,59.5h0.5V60h-0.5V59.5z M151.3,62.2h0.5v0.5h-0.5V62.2z M151.1,84.6L151,70.4l5.1,9.6L151.1,84.6z M153.2,115.7l-0.5,0.4
		h-0.5l0.1-0.2v-0.2l0.6-0.6l0.4-0.1L153.2,115.7z M155.8,114.8h-0.7v-0.7l0.7,0.3V114.8z M156.3,110.7l-0.2-0.1l-0.4-0.1l-0.7-0.9
		l-0.1-0.9h0.7l0.7,1.3V110.7z M168.7,52.7l0.5-0.1l0.2,0.6l-0.2,0.3h-0.3l-0.4-0.5L168.7,52.7z M157.5,113.4v-2h0.3l0.4,1.7
		L157.5,113.4z M158.7,108.8h-0.5v-0.5h0.5V108.8z M160.4,56.3l0.1-0.3l0.5,0.4l0.1,0.3l-0.2,0.2l-0.6-0.4L160.4,56.3z M161.7,112.7
		l-0.8,0.3l-0.4-0.5v-0.2l0.4-0.6l0.4-0.1l0.8,0.2L161.7,112.7z M164.7,87.3h-0.5v-0.9h0.5V87.3z M168.8,82.2l-0.2,0.4l-1-0.4
		l0.1-0.2L168.8,82.2L168.8,82.2z M169.9,56.6l-0.6-0.3l-0.9-0.1l-0.4-0.4l0.1-0.2l0.7-0.2l1.4,0.8L169.9,56.6z M174.7,60.9v0.2
		l-0.2-0.1l-0.1-0.6l0.4,0.1l0.1,0.4H174.7z"/>
</g>
</svg>
